<?xml version="1.0" encoding="utf-8"?>
<!-- Generator: Adobe Illustrator 22.1.0, SVG Export Plug-In . SVG Version: 6.00 Build 0)  -->
<svg version="1.1" id="Layer_1" xmlns="http://www.w3.org/2000/svg" xmlns:xlink="http://www.w3.org/1999/xlink" x="0px" y="0px"
	 viewBox="0 0 32 32" style="enable-background:new 0 0 32 32;" xml:space="preserve">
<style type="text/css">
	.st0{fill:none;}
	.st1{fill:#4662BC;}
</style>
<g>
	<path class="st0" d="M28,15H4c-0.6,0-1,0.4-1,1v7.5v4C3,28.3,3.7,29,4.5,29h23c0.8,0,1.5-0.7,1.5-1.5v-4V16C29,15.4,28.6,15,28,15z
		 M16,23.9H6.5V22H16V23.9z M21,19.9H6.5v-1.9H21V19.9z"/>
	<path class="st0" d="M27.5,3h-23C3.7,3,3,3.7,3,4.5v4C3,9.3,3.7,10,4.5,10h23c0.8,0,1.5-0.7,1.5-1.5v-4C29,3.7,28.3,3,27.5,3z"/>
	<path class="st1" d="M29.5,0h-27C1.1,0,0,1.1,0,2.5v27C0,30.9,1.1,32,2.5,32h27c1.4,0,2.5-1.1,2.5-2.5v-27C32,1.1,30.9,0,29.5,0z
		 M29,23.5v4c0,0.8-0.7,1.5-1.5,1.5h-23C3.7,29,3,28.3,3,27.5v-4V16c0-0.6,0.4-1,1-1h24c0.6,0,1,0.4,1,1V23.5z M29,8.5
		c0,0.8-0.7,1.5-1.5,1.5h-23C3.7,10,3,9.3,3,8.5v-4C3,3.7,3.7,3,4.5,3h23C28.3,3,29,3.7,29,4.5V8.5z"/>
	<rect x="6.5" y="17.9" class="st1" width="14.5" height="1.9"/>
	<rect x="6.5" y="22" class="st1" width="9.5" height="1.9"/>
</g>
</svg>
