<?xml version="1.0" encoding="utf-8"?>
<!-- Generator: Adobe Illustrator 22.1.0, SVG Export Plug-In . SVG Version: 6.00 Build 0)  -->
<svg version="1.1" id="Layer_1" xmlns="http://www.w3.org/2000/svg" xmlns:xlink="http://www.w3.org/1999/xlink" x="0px" y="0px"
	 viewBox="0 0 200 200" style="enable-background:new 0 0 200 200;" xml:space="preserve">
<style type="text/css">
	.st0{fill:#9BAEB8;}
</style>
<g>
	<path class="st0" d="M5.5,118.1l6-7.3c4.2,4.1,9.8,6.8,15.2,6.8c6.6,0,10.2-3,10.2-7.7c0-4.9-3.8-6.5-9.1-8.8l-8-3.5
		c-5.7-2.4-11.8-7.1-11.8-15.8c0-9.5,8.2-16.8,19.6-16.8c6.8,0,13.4,2.9,18,7.6l-5.3,6.7c-3.7-3.2-7.7-5.1-12.7-5.1
		c-5.5,0-9.1,2.6-9.1,7c0,4.7,4.4,6.4,9.3,8.4l7.9,3.4c6.9,3,11.8,7.4,11.8,16.1c0,9.7-7.9,17.7-21,17.7
		C18.7,126.9,11.1,123.7,5.5,118.1z"/>
	<path class="st0" d="M58.2,66.2h35.1v8.9H68.5v15.3h21v8.9h-21v17.6h25.7v8.9h-36V66.2z"/>
	<path class="st0" d="M103.1,96.2c0-19.5,12-31.1,26.7-31.1c7.3,0,13.1,3.6,16.8,7.5l-5.5,6.8c-3-3.1-6.5-5.2-11.1-5.2
		c-9.5,0-16.3,8.2-16.3,21.6c0,13.6,6.3,21.8,16.1,21.8c5.2,0,9.2-2.4,12.5-6.1l5.5,6.6c-4.7,5.6-10.8,8.7-18.4,8.7
		C114.7,126.9,103.1,115.9,103.1,96.2z"/>
	<path class="st0" d="M168.1,75.1h-16.9v-8.9h44.1v8.9h-16.9v50.7h-10.4V75.1z"/>
</g>
</svg>
